<mxfile host="Electron" agent="Mozilla/5.0 (Windows NT 10.0; Win64; x64) AppleWebKit/537.36 (KHTML, like Gecko) draw.io/28.1.2 Chrome/138.0.7204.243 Electron/37.4.0 Safari/537.36" version="28.1.2">
  <diagram name="Page-1" id="B7uV1d_arZ_PD5mE8Kxf">
    <mxGraphModel dx="1042" dy="626" grid="1" gridSize="10" guides="1" tooltips="1" connect="1" arrows="1" fold="1" page="1" pageScale="1" pageWidth="827" pageHeight="1169" math="0" shadow="0">
      <root>
        <mxCell id="0" />
        <mxCell id="1" parent="0" />
        <mxCell id="tB-Uq7sRF1gaMA0PSLCb-1" value="index.php" style="html=1;rounded=1;absoluteArcSize=1;arcSize=10;whiteSpace=wrap;labelBackgroundColor=none;fillColor=#5D7F99;strokeColor=#D0CEE2;fontColor=#1A1A1A;" vertex="1" parent="1">
          <mxGeometry x="90" y="120" width="80" height="30" as="geometry" />
        </mxCell>
        <mxCell id="tB-Uq7sRF1gaMA0PSLCb-2" value="" style="endArrow=open;html=1;rounded=0;align=center;verticalAlign=top;endFill=0;labelBackgroundColor=none;endSize=6;strokeColor=#736CA8;fontColor=default;" edge="1" source="tB-Uq7sRF1gaMA0PSLCb-1" parent="1">
          <mxGeometry relative="1" as="geometry">
            <mxPoint x="210" y="135" as="targetPoint" />
          </mxGeometry>
        </mxCell>
        <mxCell id="tB-Uq7sRF1gaMA0PSLCb-11" value="index.php" style="html=1;rounded=1;absoluteArcSize=1;arcSize=10;whiteSpace=wrap;labelBackgroundColor=none;fillColor=#5D7F99;strokeColor=#D0CEE2;fontColor=#1A1A1A;" vertex="1" parent="1">
          <mxGeometry x="90" y="370" width="80" height="30" as="geometry" />
        </mxCell>
        <mxCell id="tB-Uq7sRF1gaMA0PSLCb-12" value="" style="endArrow=open;html=1;rounded=0;align=center;verticalAlign=top;endFill=0;labelBackgroundColor=none;endSize=6;strokeColor=#736CA8;fontColor=default;" edge="1" source="tB-Uq7sRF1gaMA0PSLCb-11" parent="1">
          <mxGeometry relative="1" as="geometry">
            <mxPoint x="210" y="385" as="targetPoint" />
          </mxGeometry>
        </mxCell>
        <mxCell id="tB-Uq7sRF1gaMA0PSLCb-13" value="index.php" style="html=1;rounded=1;absoluteArcSize=1;arcSize=10;whiteSpace=wrap;labelBackgroundColor=none;fillColor=#5D7F99;strokeColor=#D0CEE2;fontColor=#1A1A1A;" vertex="1" parent="1">
          <mxGeometry x="90" y="610" width="80" height="30" as="geometry" />
        </mxCell>
        <mxCell id="tB-Uq7sRF1gaMA0PSLCb-14" value="" style="endArrow=open;html=1;rounded=0;align=center;verticalAlign=top;endFill=0;labelBackgroundColor=none;endSize=6;strokeColor=#736CA8;fontColor=default;" edge="1" source="tB-Uq7sRF1gaMA0PSLCb-13" parent="1">
          <mxGeometry relative="1" as="geometry">
            <mxPoint x="210" y="625" as="targetPoint" />
          </mxGeometry>
        </mxCell>
        <mxCell id="tB-Uq7sRF1gaMA0PSLCb-15" value="dashboard.html" style="swimlane;fontStyle=1;align=center;verticalAlign=top;childLayout=stackLayout;horizontal=1;startSize=26;horizontalStack=0;resizeParent=1;resizeParentMax=0;resizeLast=0;collapsible=1;marginBottom=0;whiteSpace=wrap;html=1;labelBackgroundColor=none;fillColor=#5D7F99;strokeColor=#D0CEE2;fontColor=#1A1A1A;" vertex="1" parent="1">
          <mxGeometry x="210" y="92" width="230" height="86" as="geometry" />
        </mxCell>
        <mxCell id="tB-Uq7sRF1gaMA0PSLCb-16" value="view contracts" style="text;strokeColor=none;fillColor=none;align=left;verticalAlign=top;spacingLeft=4;spacingRight=4;overflow=hidden;rotatable=0;points=[[0,0.5],[1,0.5]];portConstraint=eastwest;whiteSpace=wrap;html=1;labelBackgroundColor=none;fontColor=#1A1A1A;" vertex="1" parent="tB-Uq7sRF1gaMA0PSLCb-15">
          <mxGeometry y="26" width="230" height="26" as="geometry" />
        </mxCell>
        <mxCell id="tB-Uq7sRF1gaMA0PSLCb-17" value="" style="line;strokeWidth=1;fillColor=none;align=left;verticalAlign=middle;spacingTop=-1;spacingLeft=3;spacingRight=3;rotatable=0;labelPosition=right;points=[];portConstraint=eastwest;strokeColor=#D0CEE2;labelBackgroundColor=none;fontColor=#1A1A1A;" vertex="1" parent="tB-Uq7sRF1gaMA0PSLCb-15">
          <mxGeometry y="52" width="230" height="8" as="geometry" />
        </mxCell>
        <mxCell id="tB-Uq7sRF1gaMA0PSLCb-18" value="download contracsts (csv, pdf, doc, docx)" style="text;strokeColor=none;fillColor=none;align=left;verticalAlign=top;spacingLeft=4;spacingRight=4;overflow=hidden;rotatable=0;points=[[0,0.5],[1,0.5]];portConstraint=eastwest;whiteSpace=wrap;html=1;labelBackgroundColor=none;fontColor=#1A1A1A;" vertex="1" parent="tB-Uq7sRF1gaMA0PSLCb-15">
          <mxGeometry y="60" width="230" height="26" as="geometry" />
        </mxCell>
        <mxCell id="tB-Uq7sRF1gaMA0PSLCb-19" value="dashboard.html" style="swimlane;fontStyle=1;align=center;verticalAlign=top;childLayout=stackLayout;horizontal=1;startSize=26;horizontalStack=0;resizeParent=1;resizeParentMax=0;resizeLast=0;collapsible=1;marginBottom=0;whiteSpace=wrap;html=1;labelBackgroundColor=none;fillColor=#5D7F99;strokeColor=#D0CEE2;fontColor=#1A1A1A;" vertex="1" parent="1">
          <mxGeometry x="210" y="342" width="230" height="86" as="geometry" />
        </mxCell>
        <mxCell id="tB-Uq7sRF1gaMA0PSLCb-20" value="view contracts" style="text;strokeColor=none;fillColor=none;align=left;verticalAlign=top;spacingLeft=4;spacingRight=4;overflow=hidden;rotatable=0;points=[[0,0.5],[1,0.5]];portConstraint=eastwest;whiteSpace=wrap;html=1;labelBackgroundColor=none;fontColor=#1A1A1A;" vertex="1" parent="tB-Uq7sRF1gaMA0PSLCb-19">
          <mxGeometry y="26" width="230" height="26" as="geometry" />
        </mxCell>
        <mxCell id="tB-Uq7sRF1gaMA0PSLCb-21" value="" style="line;strokeWidth=1;fillColor=none;align=left;verticalAlign=middle;spacingTop=-1;spacingLeft=3;spacingRight=3;rotatable=0;labelPosition=right;points=[];portConstraint=eastwest;strokeColor=#D0CEE2;labelBackgroundColor=none;fontColor=#1A1A1A;" vertex="1" parent="tB-Uq7sRF1gaMA0PSLCb-19">
          <mxGeometry y="52" width="230" height="8" as="geometry" />
        </mxCell>
        <mxCell id="tB-Uq7sRF1gaMA0PSLCb-22" value="download contracsts (csv, pdf, doc, docx)" style="text;strokeColor=none;fillColor=none;align=left;verticalAlign=top;spacingLeft=4;spacingRight=4;overflow=hidden;rotatable=0;points=[[0,0.5],[1,0.5]];portConstraint=eastwest;whiteSpace=wrap;html=1;labelBackgroundColor=none;fontColor=#1A1A1A;" vertex="1" parent="tB-Uq7sRF1gaMA0PSLCb-19">
          <mxGeometry y="60" width="230" height="26" as="geometry" />
        </mxCell>
        <mxCell id="tB-Uq7sRF1gaMA0PSLCb-23" value="dashboard.html" style="swimlane;fontStyle=1;align=center;verticalAlign=top;childLayout=stackLayout;horizontal=1;startSize=26;horizontalStack=0;resizeParent=1;resizeParentMax=0;resizeLast=0;collapsible=1;marginBottom=0;whiteSpace=wrap;html=1;labelBackgroundColor=none;fillColor=#5D7F99;strokeColor=#D0CEE2;fontColor=#1A1A1A;" vertex="1" parent="1">
          <mxGeometry x="210" y="580" width="230" height="86" as="geometry" />
        </mxCell>
        <mxCell id="tB-Uq7sRF1gaMA0PSLCb-24" value="view contracts" style="text;strokeColor=none;fillColor=none;align=left;verticalAlign=top;spacingLeft=4;spacingRight=4;overflow=hidden;rotatable=0;points=[[0,0.5],[1,0.5]];portConstraint=eastwest;whiteSpace=wrap;html=1;labelBackgroundColor=none;fontColor=#1A1A1A;" vertex="1" parent="tB-Uq7sRF1gaMA0PSLCb-23">
          <mxGeometry y="26" width="230" height="26" as="geometry" />
        </mxCell>
        <mxCell id="tB-Uq7sRF1gaMA0PSLCb-25" value="" style="line;strokeWidth=1;fillColor=none;align=left;verticalAlign=middle;spacingTop=-1;spacingLeft=3;spacingRight=3;rotatable=0;labelPosition=right;points=[];portConstraint=eastwest;strokeColor=#D0CEE2;labelBackgroundColor=none;fontColor=#1A1A1A;" vertex="1" parent="tB-Uq7sRF1gaMA0PSLCb-23">
          <mxGeometry y="52" width="230" height="8" as="geometry" />
        </mxCell>
        <mxCell id="tB-Uq7sRF1gaMA0PSLCb-26" value="download contracsts (csv, pdf, doc, docx)" style="text;strokeColor=none;fillColor=none;align=left;verticalAlign=top;spacingLeft=4;spacingRight=4;overflow=hidden;rotatable=0;points=[[0,0.5],[1,0.5]];portConstraint=eastwest;whiteSpace=wrap;html=1;labelBackgroundColor=none;fontColor=#1A1A1A;" vertex="1" parent="tB-Uq7sRF1gaMA0PSLCb-23">
          <mxGeometry y="60" width="230" height="26" as="geometry" />
        </mxCell>
        <mxCell id="tB-Uq7sRF1gaMA0PSLCb-27" value="" style="endArrow=open;html=1;rounded=0;align=center;verticalAlign=top;endFill=0;labelBackgroundColor=none;endSize=6;strokeColor=#736CA8;fontColor=default;" edge="1" parent="1">
          <mxGeometry relative="1" as="geometry">
            <mxPoint x="480" y="384.5" as="targetPoint" />
            <mxPoint x="440" y="384.5" as="sourcePoint" />
          </mxGeometry>
        </mxCell>
        <mxCell id="tB-Uq7sRF1gaMA0PSLCb-28" value="" style="endArrow=open;html=1;rounded=0;align=center;verticalAlign=top;endFill=0;labelBackgroundColor=none;endSize=6;strokeColor=#736CA8;fontColor=default;" edge="1" parent="1">
          <mxGeometry relative="1" as="geometry">
            <mxPoint x="480" y="624.5" as="targetPoint" />
            <mxPoint x="440" y="624.5" as="sourcePoint" />
          </mxGeometry>
        </mxCell>
        <mxCell id="tB-Uq7sRF1gaMA0PSLCb-44" value="" style="endArrow=open;html=1;rounded=0;align=center;verticalAlign=top;endFill=0;labelBackgroundColor=none;endSize=6;strokeColor=#736CA8;fontColor=default;" edge="1" parent="1">
          <mxGeometry relative="1" as="geometry">
            <mxPoint x="750" y="624.5" as="targetPoint" />
            <mxPoint x="710" y="624.5" as="sourcePoint" />
          </mxGeometry>
        </mxCell>
        <mxCell id="tB-Uq7sRF1gaMA0PSLCb-45" value="users.php" style="swimlane;fontStyle=1;align=center;verticalAlign=top;childLayout=stackLayout;horizontal=1;startSize=26;horizontalStack=0;resizeParent=1;resizeParentMax=0;resizeLast=0;collapsible=1;marginBottom=0;whiteSpace=wrap;html=1;labelBackgroundColor=none;fillColor=#5D7F99;strokeColor=#D0CEE2;fontColor=#1A1A1A;" vertex="1" parent="1">
          <mxGeometry x="750" y="582" width="230" height="86" as="geometry" />
        </mxCell>
        <mxCell id="tB-Uq7sRF1gaMA0PSLCb-46" value="change user privileges" style="text;strokeColor=none;fillColor=none;align=left;verticalAlign=top;spacingLeft=4;spacingRight=4;overflow=hidden;rotatable=0;points=[[0,0.5],[1,0.5]];portConstraint=eastwest;whiteSpace=wrap;html=1;labelBackgroundColor=none;fontColor=#1A1A1A;" vertex="1" parent="tB-Uq7sRF1gaMA0PSLCb-45">
          <mxGeometry y="26" width="230" height="26" as="geometry" />
        </mxCell>
        <mxCell id="tB-Uq7sRF1gaMA0PSLCb-47" value="" style="line;strokeWidth=1;fillColor=none;align=left;verticalAlign=middle;spacingTop=-1;spacingLeft=3;spacingRight=3;rotatable=0;labelPosition=right;points=[];portConstraint=eastwest;strokeColor=#D0CEE2;labelBackgroundColor=none;fontColor=#1A1A1A;" vertex="1" parent="tB-Uq7sRF1gaMA0PSLCb-45">
          <mxGeometry y="52" width="230" height="8" as="geometry" />
        </mxCell>
        <mxCell id="tB-Uq7sRF1gaMA0PSLCb-48" value="delete user" style="text;strokeColor=none;fillColor=none;align=left;verticalAlign=top;spacingLeft=4;spacingRight=4;overflow=hidden;rotatable=0;points=[[0,0.5],[1,0.5]];portConstraint=eastwest;whiteSpace=wrap;html=1;labelBackgroundColor=none;fontColor=#1A1A1A;" vertex="1" parent="tB-Uq7sRF1gaMA0PSLCb-45">
          <mxGeometry y="60" width="230" height="26" as="geometry" />
        </mxCell>
        <mxCell id="tB-Uq7sRF1gaMA0PSLCb-49" value="manage_contract.html" style="swimlane;fontStyle=1;align=center;verticalAlign=top;childLayout=stackLayout;horizontal=1;startSize=26;horizontalStack=0;resizeParent=1;resizeParentMax=0;resizeLast=0;collapsible=1;marginBottom=0;whiteSpace=wrap;html=1;labelBackgroundColor=none;fillColor=#5D7F99;strokeColor=#D0CEE2;fontColor=#1A1A1A;" vertex="1" parent="1">
          <mxGeometry x="480" y="342" width="230" height="86" as="geometry" />
        </mxCell>
        <mxCell id="tB-Uq7sRF1gaMA0PSLCb-50" value="create, edit, and delete contracts" style="text;strokeColor=none;fillColor=none;align=left;verticalAlign=top;spacingLeft=4;spacingRight=4;overflow=hidden;rotatable=0;points=[[0,0.5],[1,0.5]];portConstraint=eastwest;whiteSpace=wrap;html=1;labelBackgroundColor=none;fontColor=#1A1A1A;" vertex="1" parent="tB-Uq7sRF1gaMA0PSLCb-49">
          <mxGeometry y="26" width="230" height="26" as="geometry" />
        </mxCell>
        <mxCell id="tB-Uq7sRF1gaMA0PSLCb-51" value="" style="line;strokeWidth=1;fillColor=none;align=left;verticalAlign=middle;spacingTop=-1;spacingLeft=3;spacingRight=3;rotatable=0;labelPosition=right;points=[];portConstraint=eastwest;strokeColor=#D0CEE2;labelBackgroundColor=none;fontColor=#1A1A1A;" vertex="1" parent="tB-Uq7sRF1gaMA0PSLCb-49">
          <mxGeometry y="52" width="230" height="8" as="geometry" />
        </mxCell>
        <mxCell id="tB-Uq7sRF1gaMA0PSLCb-52" value="download contracsts (csv, pdf, doc, docx)" style="text;strokeColor=none;fillColor=none;align=left;verticalAlign=top;spacingLeft=4;spacingRight=4;overflow=hidden;rotatable=0;points=[[0,0.5],[1,0.5]];portConstraint=eastwest;whiteSpace=wrap;html=1;labelBackgroundColor=none;fontColor=#1A1A1A;" vertex="1" parent="tB-Uq7sRF1gaMA0PSLCb-49">
          <mxGeometry y="60" width="230" height="26" as="geometry" />
        </mxCell>
        <mxCell id="tB-Uq7sRF1gaMA0PSLCb-53" value="manage_contract.html" style="swimlane;fontStyle=1;align=center;verticalAlign=top;childLayout=stackLayout;horizontal=1;startSize=26;horizontalStack=0;resizeParent=1;resizeParentMax=0;resizeLast=0;collapsible=1;marginBottom=0;whiteSpace=wrap;html=1;labelBackgroundColor=none;fillColor=#5D7F99;strokeColor=#D0CEE2;fontColor=#1A1A1A;" vertex="1" parent="1">
          <mxGeometry x="480" y="563" width="230" height="120" as="geometry" />
        </mxCell>
        <mxCell id="tB-Uq7sRF1gaMA0PSLCb-54" value="create, edit, and delete contracts" style="text;strokeColor=none;fillColor=none;align=left;verticalAlign=top;spacingLeft=4;spacingRight=4;overflow=hidden;rotatable=0;points=[[0,0.5],[1,0.5]];portConstraint=eastwest;whiteSpace=wrap;html=1;labelBackgroundColor=none;fontColor=#1A1A1A;" vertex="1" parent="tB-Uq7sRF1gaMA0PSLCb-53">
          <mxGeometry y="26" width="230" height="26" as="geometry" />
        </mxCell>
        <mxCell id="tB-Uq7sRF1gaMA0PSLCb-55" value="" style="line;strokeWidth=1;fillColor=none;align=left;verticalAlign=middle;spacingTop=-1;spacingLeft=3;spacingRight=3;rotatable=0;labelPosition=right;points=[];portConstraint=eastwest;strokeColor=#D0CEE2;labelBackgroundColor=none;fontColor=#1A1A1A;" vertex="1" parent="tB-Uq7sRF1gaMA0PSLCb-53">
          <mxGeometry y="52" width="230" height="8" as="geometry" />
        </mxCell>
        <mxCell id="tB-Uq7sRF1gaMA0PSLCb-56" value="download contracsts (csv, pdf, doc, docx)" style="text;strokeColor=none;fillColor=none;align=left;verticalAlign=top;spacingLeft=4;spacingRight=4;overflow=hidden;rotatable=0;points=[[0,0.5],[1,0.5]];portConstraint=eastwest;whiteSpace=wrap;html=1;labelBackgroundColor=none;fontColor=#1A1A1A;" vertex="1" parent="tB-Uq7sRF1gaMA0PSLCb-53">
          <mxGeometry y="60" width="230" height="26" as="geometry" />
        </mxCell>
        <mxCell id="tB-Uq7sRF1gaMA0PSLCb-58" value="" style="line;strokeWidth=1;fillColor=none;align=left;verticalAlign=middle;spacingTop=-1;spacingLeft=3;spacingRight=3;rotatable=0;labelPosition=right;points=[];portConstraint=eastwest;strokeColor=#D0CEE2;labelBackgroundColor=none;fontColor=#1A1A1A;" vertex="1" parent="tB-Uq7sRF1gaMA0PSLCb-53">
          <mxGeometry y="86" width="230" height="8" as="geometry" />
        </mxCell>
        <mxCell id="tB-Uq7sRF1gaMA0PSLCb-57" value="create contract types" style="text;strokeColor=none;fillColor=none;align=left;verticalAlign=top;spacingLeft=4;spacingRight=4;overflow=hidden;rotatable=0;points=[[0,0.5],[1,0.5]];portConstraint=eastwest;whiteSpace=wrap;html=1;labelBackgroundColor=none;fontColor=#1A1A1A;" vertex="1" parent="tB-Uq7sRF1gaMA0PSLCb-53">
          <mxGeometry y="94" width="230" height="26" as="geometry" />
        </mxCell>
      </root>
    </mxGraphModel>
  </diagram>
</mxfile>
